<?xml version="1.0" encoding="utf-8"?>
<!-- Generator: Adobe Illustrator 25.4.1, SVG Export Plug-In . SVG Version: 6.00 Build 0)  -->
<svg version="1.1" id="Layer_1" xmlns="http://www.w3.org/2000/svg" xmlns:xlink="http://www.w3.org/1999/xlink" x="0px" y="0px"
	 viewBox="0 0 300 300" style="enable-background:new 0 0 300 300;" xml:space="preserve">
<style type="text/css">
	.st0{fill:#72CCFF;}
</style>
<g>
	<path class="st0" d="M150,96.4c-29.6,0-53.6,24.1-53.6,53.6s24.1,53.6,53.6,53.6s53.6-24.1,53.6-53.6S179.6,96.4,150,96.4z
		 M150,176c-14.3,0-26-11.7-26-26s11.7-26,26-26s26,11.7,26,26S164.3,176,150,176z"/>
	<path class="st0" d="M286.2,136.2h-12.4c-6.4-57.7-52.3-103.6-110-110V13.8C163.8,6.2,157.6,0,150,0c-7.6,0-13.8,6.2-13.8,13.8
		v12.4c-57.7,6.4-103.6,52.3-110,110H13.8C6.2,136.2,0,142.4,0,150c0,7.6,6.2,13.8,13.8,13.8h12.4c6.4,57.7,52.3,103.6,110,110v12.4
		c0,7.6,6.2,13.8,13.8,13.8c7.6,0,13.8-6.2,13.8-13.8v-12.4c57.7-6.4,103.6-52.3,110-110h12.4c7.6,0,13.8-6.2,13.8-13.8
		C300,142.4,293.8,136.2,286.2,136.2z M163.8,245.9v-14.2c0-7.6-6.2-13.8-13.8-13.8c-7.6,0-13.8,6.2-13.8,13.8v14.2
		c-42.4-6.1-76-39.7-82.1-82.1h14.2c7.6,0,13.8-6.2,13.8-13.8c0-7.6-6.2-13.8-13.8-13.8H54.1c6.1-42.4,39.7-76,82.1-82.1v14.2
		c0,7.6,6.2,13.8,13.8,13.8c7.6,0,13.8-6.2,13.8-13.8V54.1c42.4,6.1,76,39.7,82.1,82.1h-14.2c-7.6,0-13.8,6.2-13.8,13.8
		c0,7.6,6.2,13.8,13.8,13.8h14.2C239.8,206.2,206.2,239.8,163.8,245.9z"/>
</g>
</svg>
