<?xml version="1.0" encoding="utf-8"?>
<!-- Generator: Adobe Illustrator 25.4.1, SVG Export Plug-In . SVG Version: 6.00 Build 0)  -->
<svg version="1.1" id="Layer_1" xmlns="http://www.w3.org/2000/svg" xmlns:xlink="http://www.w3.org/1999/xlink" x="0px" y="0px"
	 viewBox="0 0 300 300" style="enable-background:new 0 0 300 300;" xml:space="preserve">
<style type="text/css">
	.st0{fill:#72CCFF;}
</style>
<path class="st0" d="M300,149.4l-61.5-33.9l42.7-85.4l-89.1,37.7L155.6,0l-35.1,66.5L0,2.5l72.8,114.2L2.5,151.9l72.8,31.4L49,256.1
	l72.8-25.1l37.7,69l35.1-67.8L300,288.7l-57.7-109.2L300,149.4L300,149.4z M182,198.3L158.2,246l-25.1-46.4l-42.7,15.1l16.3-45.2
	l-45.2-18.8l47.7-23.8L72.8,69l57.7,31.4L155.6,54l25.1,47.7l46.4-20.1l-22.6,45.2l42.7,22.6L205.9,172l30.1,57.7L182,198.3
	L182,198.3z"/>
</svg>
