<?xml version="1.0" encoding="utf-8"?>
<!-- Generator: Adobe Illustrator 25.4.1, SVG Export Plug-In . SVG Version: 6.00 Build 0)  -->
<svg version="1.1" id="Capa_1" xmlns="http://www.w3.org/2000/svg" xmlns:xlink="http://www.w3.org/1999/xlink" x="0px" y="0px"
	 viewBox="0 0 512 448.7" style="enable-background:new 0 0 512 448.7;" xml:space="preserve">
<style type="text/css">
	.st0{fill:#F3F3F3;}
</style>
<path class="st0" d="M511.9,91.6C509.6,40.6,467.5,0,416,0H234c-17.7,0-32,14.3-32,32v0c0,17.7,14.3,32,32,32h182
	c17.7,0,32,14.3,32,32v128.8c0,17.7-14.3,32-32,32H109.3l73.4-73.3c12.7-12.7,12.5-33.5-0.7-45.9c-12.7-12-32.8-11.2-45.1,1.1
	L9.4,266.2c-12.5,12.5-12.5,32.8,0,45.3L136.9,439c12.3,12.3,32.4,13.1,45.1,1.1c13.2-12.4,13.4-33.2,0.7-45.9l-73.4-73.4H416
	c53,0,96-43,96-96C512,224.8,511.9,92.4,511.9,91.6z"/>
</svg>
