<?xml version="1.0" encoding="utf-8"?>
<!-- Generator: Adobe Illustrator 25.4.1, SVG Export Plug-In . SVG Version: 6.00 Build 0)  -->
<svg version="1.1" id="Capa_1" xmlns="http://www.w3.org/2000/svg" xmlns:xlink="http://www.w3.org/1999/xlink" x="0px" y="0px"
	 viewBox="0 0 323.6 323.6" style="enable-background:new 0 0 323.6 323.6;" xml:space="preserve">
<style type="text/css">
	.st0{fill:#72CCFF;}
</style>
<g>
	<path class="st0" d="M271.4,323.6H52.2C23.4,323.6,0,300.2,0,271.4V52.2C0,23.4,23.4,0,52.2,0h219.2c28.8,0,52.2,23.4,52.2,52.2
		v219.2C323.6,300.2,300.2,323.6,271.4,323.6z M52.2,33.1c-10.5,0-19.1,8.6-19.1,19.1v219.2c0,10.5,8.6,19.1,19.1,19.1h219.2
		c10.5,0,19.1-8.6,19.1-19.1V52.2c0-10.5-8.6-19.1-19.1-19.1H52.2z"/>
</g>
<g>
	<path class="st0" d="M99.9,227.5h46.2v-85.8H99.9v-27.2h80.9v113h42.9v27.2H99.9V227.5z M163.4,92.8c-8.1,0-13.9-1.7-17.2-5.2
		c-3.4-3.4-5-7.6-5-12.5v-6.5c0-4.9,1.7-9.1,5-12.5c3.3-3.4,9.1-5.2,17.2-5.2c8.1,0,13.9,1.7,17.2,5.2c3.3,3.4,5,7.6,5,12.5v6.5
		c0,4.9-1.7,9.1-5,12.5C177.3,91.1,171.6,92.8,163.4,92.8z"/>
</g>
</svg>
