<svg xmlns="http://www.w3.org/2000/svg" width="136" height="95" viewBox="0 0 136 95" fill="none">
  <g filter="url(#filter0_d_5_101)">
    <path d="M22.7825 10L15.5437 27.085H118.667L118.597 10.0003H51.61V23.9992H47.8014V10.0003H43.5663V23.9992H39.759V10.0003H35.3325V23.9992H31.5239V10.0003L22.7825 10ZM121.255 14.018V24.2545H126V14.018H121.255ZM17.0773 30.8611L22.2991 38.9211L10 83.1939L35.8169 85L41.286 60.3288H70.6728L74.3961 40.1248L118.715 39.1497L118.682 30.8614H17.0771L17.0773 30.8611ZM69.5521 40.2315L66.716 55.6245H42.3286L45.6242 40.7582L48.8056 40.6882L48.241 49.6256L51.8621 53.0434L52.1168 44.5718L58.3857 40.4772L69.5524 40.2315H69.5521Z" fill="white"/>
  </g>
  <defs>
    <filter id="filter0_d_5_101" x="0" y="0" width="136" height="95" filterUnits="userSpaceOnUse" color-interpolation-filters="sRGB">
      <feFlood flood-opacity="0" result="BackgroundImageFix"/>
      <feColorMatrix in="SourceAlpha" type="matrix" values="0 0 0 0 0 0 0 0 0 0 0 0 0 0 0 0 0 0 127 0" result="hardAlpha"/>
      <feOffset/>
      <feGaussianBlur stdDeviation="5"/>
      <feComposite in2="hardAlpha" operator="out"/>
      <feColorMatrix type="matrix" values="0 0 0 0 0 0 0 0 0 0 0 0 0 0 0 0 0 0 1 0"/>
      <feBlend mode="normal" in2="BackgroundImageFix" result="effect1_dropShadow_5_101"/>
      <feBlend mode="normal" in="SourceGraphic" in2="effect1_dropShadow_5_101" result="shape"/>
    </filter>
  </defs>
</svg>