<?xml version="1.0" encoding="utf-8"?>
<!-- Generator: Adobe Illustrator 25.4.1, SVG Export Plug-In . SVG Version: 6.00 Build 0)  -->
<svg version="1.1" id="Layer_1" xmlns="http://www.w3.org/2000/svg" xmlns:xlink="http://www.w3.org/1999/xlink" x="0px" y="0px"
	 viewBox="0 0 411.8 149.8" style="enable-background:new 0 0 411.8 149.8;" xml:space="preserve">
<style type="text/css">
	.st0{fill:#72CCFF;}
</style>
<path class="st0" d="M407.4,64.3L347.7,4.5c-5.8-5.8-15.2-6.1-21.1-0.5c-6.2,5.8-6.3,15.6-0.3,21.5l34.4,34.4l-309.4,0l34.4-34.4
	c6-6,5.9-15.7-0.3-21.5c-6-5.6-15.4-5.2-21.1,0.5L4.4,64.3c-5.9,5.9-5.9,15.4,0,21.2l59.8,59.8c5.8,5.8,15.2,6.1,21.1,0.5
	c6.2-5.8,6.3-15.6,0.3-21.5L51.2,89.9l309.4,0l-34.4,34.4c-6,6-5.9,15.7,0.3,21.5c6,5.6,15.4,5.2,21.1-0.5l59.8-59.8
	C413.3,79.7,413.3,70.1,407.4,64.3z"/>
</svg>
