<?xml version="1.0" encoding="utf-8"?>
<!-- Generator: Adobe Illustrator 25.4.1, SVG Export Plug-In . SVG Version: 6.00 Build 0)  -->
<svg version="1.1" id="Capa_1" xmlns="http://www.w3.org/2000/svg" xmlns:xlink="http://www.w3.org/1999/xlink" x="0px" y="0px"
	 viewBox="0 0 378.1 409.1" style="enable-background:new 0 0 378.1 409.1;" xml:space="preserve">
<style type="text/css">
	.st0{fill:#72CCFF;}
</style>
<path class="st0" d="M321.8,408.3c-1,0.6-2.2,0.9-3.5,0.7l0,0c-0.7-0.1-1.3-0.5-1.8-1l0,0c-1.3-1.4-2.5-2.8-3.2-4.4
	c-9.3-20.7-18.7-41.7-27.8-62.1c-7.4-16.8-14.9-33.4-22.4-50.2c-1.4-3.1-3.4-4.8-5.9-4.8c-0.3,0-0.5,0.1-0.8,0.1
	c-9.2,1.3-16.6,7.6-20.1,17.3c-2.8,7.8-6.3,15.6-9.5,23.2c-1.3,2.9-2.6,5.9-3.9,8.8c-2,4.6-3.6,5-4.9,5c-1.6,0-4-0.8-7-2.4
	c-5.8-3-12.2-5.7-19.4-8.1c-5.8-1.9-7.2-4.4-5.6-9.7c4.6-15,9-30.7,13.8-47.8c0.7-2.7-0.2-6.4-2.1-8.4c-3.4-3.7-6.9-7.1-10.4-10.6
	c-3.7-3.6-7.4-7.3-11-11.1c-1.3-1.5-3.4-3.2-6.2-3.2c-2,0-3.9,0.9-5.2,1.7c-24.2,14-50.1,21.1-76.7,21.1c-11.9,0-24.3-1.4-36.7-4.3
	c-4.4-1-5.6-2.9-4.8-7.5l1.4-7.8c1.9-10.6,3.8-21.1,5.6-31.7c1.2-6.9,2.8-6.9,5-6.9c1.2,0,2.8,0.2,4.9,0.7
	c8.4,1.9,16.7,2.8,24.6,2.8c22.8,0,44.2-7.9,63.4-23.6c1.1-0.8,4.5-3.7,2.9-7.2c-0.3-0.9-0.7-1.8-1-2.7c-1.4-4.1-2.9-8.2-5.9-11.5
	c-5-5.6-10.4-10.9-15.6-16c-3.7-3.7-7.4-7.4-11.1-11.2c-0.9-0.9-1.5-2.5-2.1-4.3c-0.3-0.8-0.6-1.7-1-2.5c-0.2-0.4-0.4-1-0.6-1.6
	c-0.4-1.5-1-3.2-2.3-4.7c-10-10.3-20.2-20.4-30.2-30.4c-3-3-6-6-9-9L55.9,63.2c-17.7-17.7-35.3-35.3-53-53c-4.1-4.1-3-6-1.6-7.6
	c1.3-1.5,2.4-1.7,3-1.7c1.2,0,2.8,0.7,4.6,2.1c0.8,0.7,1.9,1,3.1,1c1.3,0,3.4-0.4,4.8-1.6C18.6,0.8,20.1,0,21.4,0
	c0.3,0,1.4,0,2.8,1.4c1.6,1.5,2.7,3.2-0.7,7.4c-1.6,1.9-1.8,6.7,0.2,8.8C32.6,26.9,41.9,36,50.8,45l7.1,7.1
	c6.9,7,10.5,10.5,15.7,10.5c3.8,0,7.9-1.9,14.6-5.1c1.5-0.7,2.8-1.1,4.1-1.1c1.2,0,2.9,0.3,5.5,2.8c12.8,13.2,25.8,26,40.1,40.2
	c1.2,1.2,3.6,2.4,5.5,2.4c0.7,0,1.3-0.2,1.9-0.5c1-0.6,1.8-0.8,2.6-0.8c1.4,0,2.9,0.9,5,2.9l26.8,26.8
	c34.2,34.2,69.7,69.7,104.4,104.6c1.5,1.5,2.7,4.2,2.6,5.6c-1,9.5,1.4,18.7,7.7,29.3c1.8,3.1,3.6,6.5,5.2,9.7
	c1.9,3.9,4,7.9,6.3,11.7c1.8,2.9,4.9,5.6,9.3,8.2c2,1.1,4.4,1.9,6.5,2.7c2.9,1.1,5.8,2,7.1,3.8c12.9,15.8,25.5,32.3,37.7,48.3
	c3.1,4.3,6.4,8.4,9.6,12.7c1.4,1.9,2,3.6,1.8,4.8c-0.2,1.2-1.3,2.5-3.4,3.8c-13.3,8.3-26.8,16.7-39.9,24.7
	C330.4,402.8,326.2,405.4,321.8,408.3z M277.6,267.8c-3.9,2.2-10.1,11-8,15.6l10.9,24.4c12.2,27.3,24.8,55.6,37.1,83.5
	c0.7,1.5,2.1,4.7,5.5,4.7c1.7,0,3.2-0.9,4.4-1.6c5.4-3.6,11.1-7,16.4-10.4c5.7-3.6,11.5-7.1,17.2-10.8c1.4-0.9,2.4-2.4,2.7-4.1
	c0.3-1.7-0.1-3.5-1.1-4.8l-4.5-5.9C347.3,344,336,329.1,324.3,315c-3.4-4.1-9-5.8-14.1-7.3l-0.7-0.2c-5.2-1.5-8.1-4.1-10.3-8.6
	c-3.2-6.8-6.9-13.6-10.4-20.1c-1.3-2.5-2.7-5.1-4.1-7.6c-0.3-0.7-0.7-1.3-1.1-1.9c-0.8-1.3-2.3-2.1-3.9-2.1
	C279.1,267,278.2,267.3,277.6,267.8z M222.5,257.2c-1,1.1-2.1,2.2-3.4,3.4c-4.5,4.3-9.1,8.7-10.9,16.1c-2.1,9-4.9,18.1-7.5,26.9
	c-1.1,3.8-2.2,7.6-3.4,11.5l-1.7,6.1l2.1,1.1c0.4,0.2,0.9,0.5,1.3,0.7c1,0.6,2.2,1.3,3.6,1.8c4.4,1.8,6.9,2.9,9.2,2.9l0,0
	c4.6,0,6.1-3.7,8.9-10.3c0.7-1.6,1.4-3.6,2.4-5.7c1.4-3.4,2.8-6.7,4.2-10.1l0.8-2.1c3.2-8,8.2-13.8,15.3-17.7
	c1.6-0.9,2.2-2.8,2.4-4.3c0.4-2,0-3.6-0.9-4.6c-5.2-5.6-10.6-10.9-15.2-15.3c-1.2-1.1-3.2-1.7-4.7-1.7
	C223.7,256.1,222.9,256.7,222.5,257.2z M177.2,151.1c-1.6,2-3.6,3.8-5.5,5.7c-0.8,0.8-1.7,1.7-2.5,2.5c-8.5,8.6-8.5,16.2,0.2,25
	l17.6,17.6c21.8,21.8,44.5,44.4,66.6,66.7c1.2,1.3,2.9,2.7,5.2,2.7c2.3,0,4.1-1.5,5.3-2.9s2.6-2.6,4.1-4.1c1.7-1.6,3.5-3.4,5.1-5.3
	c1.5-1.9,2.7-4.1,4.1-6.4l0.4-0.7c1.4-2.5,1.4-5.6,0.1-8.1l-0.4-0.7c-1.2-2.2-2.3-4.4-4.1-6.1c-14.9-15.1-30.2-30.4-45-45.2
	c-13.3-13.3-27-27-40.5-40.6c-1.3-1.4-3-2.8-5.3-2.8C180.1,148.3,178.3,150,177.2,151.1z M206.7,241.5c-1.8,1.5-4.4,3.8-6.2,5.4
	c-0.9,0.9-1.4,2.1-1.4,3.4s0.5,2.4,1.4,3.4c0.8,0.7,1.6,1.5,2.6,2.3c0.9,0.8,2.1,1.2,3.4,1.2l0,0c1.2,0,2.5-0.5,3.5-1.3
	c1.8-1.5,4.3-3.8,5.7-5.2c1.8-1.8,1.9-4.9,0.1-6.8c-0.6-0.6-1.2-1.3-2-2c-1-0.9-2.3-1.4-3.7-1.4S207.6,240.7,206.7,241.5z
	 M156,192.1c-20.5,16.2-43.5,24.5-68.1,24.5c-6.3,0-12.8-0.6-19.4-1.6c-0.2,0-0.4,0-0.6,0c-2.5,0-5.9,2.6-6.4,5.1
	c-1.6,7.7-2.9,15.7-4.1,23.7c-0.4,2.7,2.4,6.5,5.2,6.9c6.5,0.9,12.9,1.6,17.6,2.1l1.7,0.2c0.9,0,1.8,0.1,2.7,0.1c0.2,0,0.3,0,0.5,0
	c38.2-0.8,68.5-11.6,95.5-34.1c1.1-0.8,3-2.5,3.1-5c0-2.1-1.4-3.8-2.6-5c-2.7-2.5-5.5-5.3-8.1-7.9c-2.6-2.7-5.5-5.6-8.3-8.2
	c-1.3-1.3-3.5-1.7-5.1-1.7C158.2,191.1,157,191.4,156,192.1z M192.4,222.6L192.4,222.6c-3,0-5.5,2.3-7.8,4.8
	c-0.6,0.5-1.1,1.1-1.7,1.6c-1.1,0.9-1.7,2.2-1.7,3.7c0,1.3,0.5,2.6,1.5,3.7c0.6,0.6,1.2,1.2,1.7,1.8c1.7,2,3.5,3.9,5.9,3.9
	c0.4,0,0.8-0.1,1.2-0.2c2.9-0.9,4.9-3.4,6.6-5.5c0.4-0.4,0.7-0.8,1-1.2c1.9-2.3,1.8-5.6-0.1-7.8
	C196.3,224.2,194.5,222.6,192.4,222.6L192.4,222.6z M143.8,116.1l-0.6,0.7c-1.6,1.9-3.1,3.8-4.9,5c-2.5,1.8-5.9,4.7-6,8.7
	c-0.1,4.1,3.4,7.3,5.9,9.3c3.1,2.5,6,5.5,8.9,8.5c1.8,2,3.9,4.1,5.9,6c0.9,0.9,2.4,1.4,4.1,1.4l0,0c1.5,0,3-0.5,4.2-1.4l1.2-1
	c5-3.9,10.6-8.3,11-13.7c0.2-4.2-3.7-7.5-7.8-11c-1.4-1.2-2.7-2.3-3.9-3.5c-2.8-2.9-5.9-5.9-8.7-8.7l-0.4-0.4
	c-0.1-0.2-0.3-0.3-0.5-0.5c-1.1-0.9-2.4-1.4-3.9-1.4C146.6,114.1,144.9,114.9,143.8,116.1z M88.2,68.9c-2.2,0.4-4.1,2-4.8,4.3
	c-0.7,2.1-0.2,4.4,1.4,6c10,10.1,20.1,20.1,30,30l6.4,6.4c0.5,0.5,1.1,1.1,1.9,1.8c0.4,0.3,0.8,0.8,1.4,1.3l0,0
	c1.3,1.2,3.4,1.1,4.5-0.3l0,0c0.3-0.5,0.7-1,1.1-1.4c1.1-1.3,2.2-2.6,3.1-4.2c1.4-2.3-0.4-5.4-1.5-6.5l-4.7-4.7
	c-10.5-10.6-21.2-21.5-32.2-31.9c-1-0.9-2.2-1.3-3.9-1.3C90,68.4,89,68.5,88.2,68.9z M245.7,240.7c-5-4.8-9.3-9.1-13.3-13.4
	c-0.1-0.1-0.2-0.2-0.3-0.3c-1.4-1.9-1.2-4.7,0.4-6.3c0.3-0.2,0.4-0.3,0.4-0.3l0,0c0.5-0.1,1.1-0.2,1.8-0.2c1.8,0,3.2,0.5,3.9,1
	c4.3,3.4,8.2,7.5,12,11.6l1.6,1.7c1.2,1.2,1.8,2.4,1.9,3.6c0,1-0.5,2-1.6,3.1c-1,0.9-2,1.4-2.9,1.4
	C248,242.7,246.7,241.7,245.7,240.7z"/>
</svg>
